<svg xmlns="http://www.w3.org/2000/svg" viewBox="0 0 826.66 567.03"><defs><style>.cls-1{fill:#fff;}</style></defs><title>plain2</title><g id="Layer_2" data-name="Layer 2"><g id="Layer_1-2" data-name="Layer 1"><g id="Layer_2-2" data-name="Layer 2"><g id="Layer_1-2-2" data-name="Layer 1-2"><polygon class="cls-1" points="802.96 176.58 802.96 267.21 711.71 267.21 711.71 176.58 688.01 176.58 688.01 390.33 711.71 390.33 711.71 290.91 802.96 290.91 802.96 390.33 826.66 390.33 826.66 176.58 802.96 176.58"/><rect class="cls-1" x="341.76" width="47.39" height="141.23"/><rect class="cls-1" width="47.39" height="141.23"/><path class="cls-1" d="M584.55,389.94a105.55,105.55,0,1,1,74.64-180.18l-16.76,16.76a81.86,81.86,0,1,0,0,115.77l0,0L659.19,359A104.87,104.87,0,0,1,584.55,389.94Z"/><polygon class="cls-1" points="120.62 389.87 0 389.87 0 176.58 23.7 176.58 23.7 366.55 120.62 366.55 120.62 389.87"/><path class="cls-1" d="M201.7,389.48a69.39,69.39,0,0,1-69.32-69.32V178.57h23.7V320.16a45.63,45.63,0,0,0,91.25,0V178.57H271V320.16A69.4,69.4,0,0,1,201.7,389.48Z"/><polygon class="cls-1" points="321.09 222.92 429.88 390.33 454.34 390.33 454.34 176.58 430.65 176.58 430.65 348.02 319.24 176.58 297.4 176.58 297.4 390.33 321.09 390.33 321.09 222.92"/><polygon class="cls-1" points="484.9 141.23 484.9 46.37 779.27 46.37 779.27 141.23 826.66 141.23 826.66 0 437.51 0 437.51 141.23 484.9 141.23"/><polygon class="cls-1" points="341.76 426.03 341.76 519.92 47.39 519.92 47.39 426.03 0 426.03 0 567.03 389.15 567.03 389.15 426.03 341.76 426.03"/><polygon class="cls-1" points="826.65 473.5 826.65 426.03 779.26 426.03 779.26 473.5 484.89 473.5 484.89 426.03 437.5 426.03 437.5 567.03 484.89 567.03 484.89 520.89 826.66 520.89 826.66 473.5 826.65 473.5"/></g></g></g></g></svg>