<svg xmlns="http://www.w3.org/2000/svg" viewBox="0 0 1266 1266"><defs><style>.cls-1{fill:#dd6570;}.cls-2{fill:#fff;}</style></defs><title>Asset 4</title><g id="Layer_2" data-name="Layer 2"><g id="LOGO"><circle class="cls-1" cx="633" cy="633" r="633"/><polygon class="cls-2" points="1062.89 520.19 1062.89 615.8 966.62 615.8 966.62 520.19 941.62 520.19 941.62 745.69 966.62 745.69 966.62 640.8 1062.89 640.8 1062.89 745.69 1087.89 745.69 1087.89 520.19 1062.89 520.19"/><rect class="cls-2" x="576.32" y="333.89" width="50" height="149"/><rect class="cls-2" x="215.77" y="333.89" width="50" height="149"/><path class="cls-2" d="M4911,8089.05A111.35,111.35,0,1,1,4989.78,7899l-17.67,17.68a86.35,86.35,0,1,0,0,122.12l17.67,17.68A110.62,110.62,0,0,1,4911,8089.05Z" transform="translate(-4078.57 -7343.77)"/><polygon class="cls-2" points="343.02 745.2 215.77 745.2 215.77 520.19 240.76 520.19 240.76 720.61 343.02 720.61 343.02 745.2"/><path class="cls-2" d="M4507.14,8088.57a73.22,73.22,0,0,1-73.14-73.14V7866.06h25v149.37a48.14,48.14,0,1,0,96.27,0V7866.06h25v149.37A73.22,73.22,0,0,1,4507.14,8088.57Z" transform="translate(-4078.57 -7343.77)"/><polygon class="cls-2" points="554.52 569.08 669.29 745.69 695.1 745.69 695.1 520.19 670.1 520.19 670.1 701.05 552.56 520.19 529.52 520.19 529.52 745.69 554.52 745.69 554.52 569.08"/><polygon class="cls-2" points="727.34 482.89 727.34 382.81 1037.89 382.81 1037.89 482.89 1087.89 482.89 1087.89 333.89 677.34 333.89 677.34 482.89 727.34 482.89"/><polygon class="cls-2" points="576.32 783.35 576.32 882.4 265.76 882.4 265.76 783.35 215.77 783.35 215.77 932.11 626.32 932.11 626.32 783.35 576.32 783.35"/><polygon class="cls-2" points="1087.88 833.43 1087.88 783.35 1037.89 783.35 1037.89 833.43 727.33 833.43 727.33 783.35 677.33 783.35 677.33 932.11 727.33 932.11 727.33 883.43 1087.89 883.43 1087.89 833.43 1087.88 833.43"/></g></g></svg>